<?xml version="1.0" encoding="utf-8"?>
<!-- Generator: Adobe Illustrator 18.1.1, SVG Export Plug-In . SVG Version: 6.00 Build 0)  -->
<!DOCTYPE svg PUBLIC "-//W3C//DTD SVG 1.1//EN" "http://www.w3.org/Graphics/SVG/1.1/DTD/svg11.dtd">
<svg version="1.1" id="Capa_1" xmlns="http://www.w3.org/2000/svg" xmlns:xlink="http://www.w3.org/1999/xlink" x="0px" y="0px"
	 viewBox="0 0 18.104 11.707" enable-background="new 0 0 18.104 11.707" xml:space="preserve">
<path fill="#557f9b" d="M9.602,0.095l-1.101,0c-0.154,0-0.28,0.126-0.28,0.28v10.957c0,0.154,0.126,0.28,0.28,0.28h1.101
	c0.154,0,0.28-0.126,0.28-0.28V0.375C9.882,0.221,9.756,0.095,9.602,0.095z"/>
<path fill="#557f9b" d="M14.81,6.404V5.303c0-0.154-0.126-0.28-0.28-0.28l-10.957,0c-0.154,0-0.28,0.126-0.28,0.28l0,1.101
	c0,0.154,0.126,0.28,0.28,0.28h10.957C14.684,6.683,14.81,6.558,14.81,6.404z"/>
</svg>
